<?xml version="1.0" encoding="utf-8"?>
<!-- Generator: Adobe Illustrator 25.1.0, SVG Export Plug-In . SVG Version: 6.00 Build 0)  -->
<svg version="1.1" xmlns="http://www.w3.org/2000/svg" xmlns:xlink="http://www.w3.org/1999/xlink" x="0px" y="0px"
	 viewBox="0 0 457 162.3" style="enable-background:new 0 0 457 162.3;" xml:space="preserve">
<style type="text/css">
	.st0{fill:none;}
	.st1{fill:#E40521;}
	.st2{fill:none;stroke:#000000;stroke-miterlimit:10;}
	.st3{fill:none;stroke:#706F6F;stroke-width:0.2837;stroke-miterlimit:10;}
	.st4{fill:none;stroke:#706F6F;stroke-width:0.3968;}
	.st5{fill:none;stroke:#706F6F;stroke-width:0.3968;stroke-dasharray:2.2761,2.2761;}
	.st6{fill:none;stroke:#706F6F;stroke-width:0.3968;stroke-dasharray:2.3212,2.3212;}
	.st7{fill:none;stroke:#93D5F6;stroke-width:0.3968;}
	.st8{fill:none;stroke:#2699D6;stroke-width:0.3968;}
	.st9{fill:none;stroke:#2699D6;stroke-width:0.3909;}
	.st10{fill:#FFFFFF;}
</style>
<g id="logo">
	<g>
		<rect y="0.2" class="st0" width="457" height="162.1"/>
		<g>
			<g>
				<path class="st1" d="M335,84.5v-5.7l5.7-0.7c2-0.2,2.8-2,3.1-2.5l14.3-23.2c1.2-1.8,0-3.4-1.5-3.6l-7.5-0.9v-5.7h32.5
					c1.8,0,3,1.3,3.7,2.3l19,29c1.5,2.3,2.6,4.1,4.5,4.4l6,0.7v5.8h-36.5v-5.7l4.6-0.6c2.2-0.3,4-1.3,2.2-4l-1.8-2.7h-25.9l-2,3.2
					c-1.2,2,0,3.2,1.9,3.4l4.6,0.6v5.7H335 M362.1,64.2h16.4l-8.3-13L362.1,64.2"/>
				<path class="st1" d="M310.8,42.3h-41.8v5.7l5.3,0.5c1.9,0.3,2.7,1.7,2.7,3.6c0,1.9,0,21,0,22.7c0,1.6-0.7,3.1-2.4,3.3L269,79
					v5.5l41.8,0c19.2,0,27.5-9.4,27.5-21.7C338.3,51.7,330.1,42.3,310.8,42.3 M304.4,76.4h-10.8v-26h10.8c10.3,0,14.6,2.4,14.6,13
					C319,74.1,314.7,76.4,304.4,76.4"/>
				<path class="st1" d="M42.2,84.5H76v-5.6l-5.8-0.7c-1.3-0.2-2.6-1-2.6-3.8v-6.8h26v6.5c0,1.9-0.3,3.7-2.6,4l-5.9,0.7v5.8h33.8
					v-5.8l-6-0.7c-1.2-0.2-2.5-1.1-2.5-3.5v-22c0-2.2,0.8-3.7,2.6-3.9l5.9-0.7v-5.7H85.1V48l5.9,0.7c2,0.3,2.6,1.8,2.6,3.9v6.6h-26
					v-6.6c0-2.5,1-3.7,2.7-3.8l5.7-0.7v-5.7H42.3v5.7l5.6,0.7c2.2,0.3,2.8,1.9,2.7,4.1v21.4c0,2.4-0.7,3.8-2.8,4.1l-5.6,0.7V84.5"/>
				<path class="st1" d="M120.6,63.2c0-13.2,10.7-22.5,34.5-22.5c23.7,0,34.4,9.3,34.4,22.5c0,13.6-10.7,22.8-34.4,22.8
					C131.3,86,120.6,76.8,120.6,63.2 M155,48.8c-9.6,0-15.1,3.6-15.1,14.5C140,74.4,145.4,78,155,78c9.6,0,15.1-3.6,15.1-14.7
					C170.1,52.4,164.7,48.8,155,48.8"/>
				<path class="st1" d="M191.4,84.5h27v-5.6l-5.8-0.7c-1.6-0.2-2.7-1.6-2.7-3.5V53.3l22.5,29.6c0.8,1,2.2,1.7,3.5,1.7h21.2v-32
					c0-1.5,0.4-3.6,2.6-3.8l5.9-0.7v-5.7h-27V48l5.9,0.7c2.1,0.3,2.6,2,2.6,4v20.9l-22.3-29.4c-0.8-1.1-1.9-1.8-3.5-1.8h-29.8v5.7
					l5.6,0.7c2,0.3,2.7,1.3,2.7,4.1v21.4c0,2.5-0.7,3.7-2.8,4.1l-5.5,0.7V84.5"/>
			</g>
			<g>
				<polygon points="55.9,102.5 64.4,102.5 64.4,120.1 67.5,120.1 67.5,102.5 76,102.5 76,100.2 55.9,100.2 				"/>
				<path d="M88.5,104.5c-2.7,0-5,1.1-6.3,3.1v-7.4h-3v19.9h3V113c0-4.7,3-6.4,5.9-6.4c3,0,4.6,1.7,4.6,5v8.5h3v-8.6
					C95.6,107,93.1,104.5,88.5,104.5z"/>
				<path d="M161.5,106.1c-1.6-1.4-3.9-2.2-7-2.2c-2.9,0-5.3,0.8-6.9,2.3c-1.6,1.4-2.4,3.5-2.4,6c0,2.6,0.8,4.7,2.4,6.1
					c1.6,1.4,3.9,2.2,6.9,2.2c6,0,9.3-2.9,9.3-8.3C163.8,109.5,163,107.5,161.5,106.1z M160.7,112.2c0,1.8-0.5,3.3-1.6,4.3
					c-1.1,1.1-2.7,1.8-4.6,1.8c-1.9,0-3.5-0.6-4.6-1.8c-1-1.1-1.6-2.6-1.6-4.3c0-3.8,2.3-6.1,6.1-6.1
					C158.4,106.1,160.7,108.3,160.7,112.2z"/>
				<path d="M250.6,106.1c-1.6-1.4-3.9-2.2-7-2.2c-2.9,0-5.3,0.8-6.9,2.3c-1.6,1.4-2.4,3.5-2.4,6c0,5.3,3.3,8.3,9.3,8.3
					c3,0,5.3-0.7,6.9-2.2c1.6-1.4,2.4-3.5,2.4-6.1C252.9,109.5,252.1,107.5,250.6,106.1z M239,107.8c1.1-1.1,2.7-1.7,4.6-1.7
					c3.9,0,6.2,2.2,6.2,6.1c0,1.7-0.6,3.2-1.6,4.3c-1.1,1.2-2.7,1.8-4.6,1.8c-3.8,0-6.2-2.4-6.2-6.1
					C237.4,110.3,238,108.8,239,107.8z"/>
				<path d="M310.9,104.1c-3,0.2-4.6,2.1-5.6,4v-3.8h-2.7v15.9h3v-8.3c0.1-1.5,0.7-2.8,1.7-3.7c1.1-0.9,2.4-1.4,4.1-1.4l1.5,0v-2.5
					l0,0C312.4,104.1,311.2,104.1,310.9,104.1z"/>
				<path d="M134.8,100.2c0,0-9,0-9,0v19.9h3.1v-7.6h6.4c2.7,0,4.8-0.6,6.2-1.8c1.3-1.1,2-2.7,2-4.6c0-1.6-0.5-2.9-1.4-3.8
					C140.5,100.9,138.1,100.2,134.8,100.2z M140.1,106.1c0,2.8-1.6,4.1-5.1,4.1h-6.1v-7.7h5.9C138.4,102.5,140.1,103.6,140.1,106.1z
					"/>
				<path d="M295.6,102.8c-1.9-1.7-4.9-2.6-8.9-2.6h-8.9v19.9h9c3.7,0,6.6-0.9,8.5-2.6c2-1.7,3-4.2,3-7.4
					C298.4,106.9,297.4,104.4,295.6,102.8z M281,102.5h5c3.6,0,5.9,0.6,7.3,1.9c1.3,1.2,1.8,3,1.8,5.7c0,5.2-2.8,7.7-8.7,7.7H281
					V102.5z"/>
				<path d="M350.4,116.7v-6.6c0-1.6,0-3-1.6-4.4c-1.4-1.2-3.7-1.8-6.1-1.8c-2.4,0-6.5,0.7-7.3,4h3.3c0.5-1.1,2-1.8,4-1.8
					c2.8,0,4.8,1.3,4.8,3.7v0.5h-1.6c-0.3,0-0.6,0-0.9,0c-2.8,0-7,0.1-9,2.2c-0.8,0.8-1.1,1.8-1.1,2.9c0,3,2.5,5,6.3,5
					c3,0,4.8-0.5,6.4-2.7c0,0,0,1.4,0.2,2.4c0.3,0,2.9,0,2.9,0S350.4,118.4,350.4,116.7z M347.4,113c0,3.5-1.8,5.3-5.5,5.3
					c-2.5,0-3.9-1.1-3.9-2.9c0-0.6,0.2-1.2,0.6-1.6c1.2-1.2,3.9-1.4,5.9-1.4c0.3,0,0.6,0,0.9,0c0.2,0,0.4,0,0.6,0h1.5V113z"/>
				<path d="M374.2,103.9c-3.3,0-5,2.1-5.8,3.8c-0.9-2.3-2.9-3.8-5.3-3.8c-2.5,0-4.4,1.2-5.5,3.3c0,0,0-1.5-0.1-3
					c-0.8,0-0.8,0-2.8,0c0.1,1.2,0.1,2.6,0.1,3.9v12h3v-7.6c0-4.3,2.4-6.3,4.8-6.3c2.5,0,3.6,1.9,3.6,5.9v8.1h3v-7.6
					c0-2.3,0.6-4,1.8-5.1c1.2-1.1,2.5-1.2,2.9-1.2c1.4,0,2.4,0.5,3,1.5c0.5,0.9,0.8,2.4,0.8,4.5v7.9h3V111c0-2.4-0.6-4.2-1.8-5.4
					C377.6,104.6,376.1,103.9,374.2,103.9z"/>
				<path d="M395.9,111.5l-5-1c-2.4-0.5-3.4-1.1-3.4-2.2c0-1.4,1.9-2.2,4.6-2.2c2.2,0,3.8,0.6,4.3,1.8h3.2c-0.2-1.4-1-2.4-2.4-3.1
					c-1.6-0.8-3.8-0.9-5.1-0.9c-2.1,0-3.9,0.4-5.2,1.1c-1.5,0.8-2.5,2.1-2.5,3.7c0,2.1,1.5,3.4,4.3,4l4.7,1c1.6,0.3,3.3,0.8,3.3,2.2
					c0,1.6-1.7,2.4-4.9,2.4c-2.6,0-4.2-0.7-4.7-2.3h-3.3c0.6,3.6,4.4,4.4,7.6,4.4c5.6,0,8.4-1.6,8.4-5
					C400.1,113.2,398.9,112.1,395.9,111.5z"/>
				<path d="M263.6,99.9c-1.6,0-3,0.2-4.2,1.1c-0.5,0.4-1,1.1-1.3,2c-0.3,0.8-0.4,1.7-0.4,3.2h-3.3v2.2h3.3l0,11.7h3v-11.7h5.5v-2.2
					c0,0-4.9,0-5.5,0c0-2.2,0.1-2.9,0.8-3.5c0.4-0.4,1.1-0.7,2.5-0.7c0.9,0,1.8,0.1,2.4,0.3c0-0.3,0-2,0-2.2
					C265.6,100,264.7,99.9,263.6,99.9z"/>
				<path d="M187.9,111.3c-0.6,1.9-1.2,4.1-2,6.7h0c-0.6-2.1-1.3-4.4-2-6.6l-2.1-6.4l0,0h-4.6l-2.1,6.5c-0.7,2.2-1.4,4.4-2,6.6h0
					c-0.8-2.7-1.4-4.8-2-6.7l-2-6.3l0,0h-3.3l4.9,15.1l0,0h4.6l2.2-6.6c0.2-0.6,0.3-1.1,0.5-1.7c0.5-1.6,1-3.2,1.5-4.8h0
					c0.5,1.7,1,3.4,1.6,5c0.2,0.5,0.3,1,0.5,1.5l2.2,6.5l0,0h4.6l4.9-15.1l0-0.1h-3.3L187.9,111.3z"/>
				<path d="M224,104.1c-3,0.2-4.6,2.1-5.6,4v-3.8h-2.7v15.9h3v-8.3c0.1-1.5,0.7-2.8,1.7-3.7c1.1-0.9,2.4-1.4,4.1-1.4l1.5,0v-2.5
					l0,0C225.5,104.1,224.3,104.1,224,104.1z"/>
				<path d="M209.5,106.1c-1.4-1.4-3.4-2.2-6-2.2c-5.4,0-8.6,3.2-8.6,8.6c0,2.4,0.8,4.4,2.2,5.7c1.5,1.4,3.7,2.2,6.3,2.2
					c2,0,3.8-0.5,5.1-1.3c1.3-0.7,2.3-1.8,2.8-3.1H208c-0.8,1.5-2.6,2.3-4.7,2.3c-2.2,0-3.9-1-4.7-2.8c-0.4-0.7-0.6-1.6-0.7-2.5
					h13.8v-0.9C211.6,109.5,210.9,107.5,209.5,106.1z M197.9,110.9c0-0.3,0.1-0.6,0.2-0.9c0.6-2.5,2.5-4,5.3-4c3.6,0,5,2.5,5.1,4.8
					H197.9z"/>
				<path d="M329.1,106.1c-1.4-1.4-3.4-2.2-6-2.2c-5.4,0-8.6,3.2-8.6,8.6c0,2.4,0.8,4.4,2.2,5.7c1.5,1.4,3.7,2.2,6.3,2.2
					c2,0,3.8-0.5,5.1-1.3c1.3-0.7,2.3-1.8,2.8-3.1h-3.3c-0.8,1.5-2.6,2.3-4.7,2.3c-2.2,0-3.9-1-4.7-2.8c-0.4-0.7-0.6-1.6-0.7-2.5
					c0,0,13.3,0,13.8,0c0-0.5,0-1.1-0.1-2C331,109.5,330.6,107.6,329.1,106.1z M317.5,110.9c0-0.3,0.1-0.6,0.2-0.9
					c0.6-2.5,2.5-4,5.3-4c3.6,0,5,2.5,5.1,4.8H317.5z"/>
				<path d="M113.8,106.1c-1.4-1.4-3.4-2.2-6-2.2c-5.4,0-8.6,3.2-8.6,8.6c0,2.4,0.8,4.4,2.2,5.7c1.5,1.4,3.7,2.2,6.3,2.2
					c2,0,3.8-0.5,5.1-1.3c1.3-0.7,2.3-1.8,2.8-3.1h-3.3c-0.8,1.5-2.6,2.3-4.7,2.3c-2.2,0-3.9-1-4.7-2.8c-0.4-0.7-0.6-1.6-0.7-2.5
					h13.8v-0.9C115.9,109.5,115.2,107.5,113.8,106.1z M102.2,110.9c0-0.3,0.1-0.6,0.2-0.9c0.6-2.5,2.5-4,5.3-4c3.6,0,5,2.5,5.1,4.8
					H102.2z"/>
			</g>
		</g>
	</g>
</g>
<g id="text_1_">
</g>
</svg>
