<svg width="341" height="62.06" xmlns="http://www.w3.org/2000/svg">
 <g>
  <title>Layer 1</title>
  <g opacity="0.01" id="svg_1">
   <path fill="#212529" d="m6.691,59.68l-4.508,0l-0.916,2.231l-1.267,0l3.874,-8.923l1.197,0l3.874,8.923l-1.268,0l-0.986,-2.231zm-0.423,-1.041l-1.831,-4.387l-1.831,4.387l3.662,0z" id="svg_2"/>
   <path fill="#212529" d="m10.306,58.044l0,-5.057l1.197,0l0,5.057c0,2.008 0.845,2.9 2.395,2.9s2.395,-0.892 2.395,-2.9l0,-5.057l1.197,0l0,5.057c0,2.603 -1.338,3.941 -3.592,3.941c-2.254,0.075 -3.592,-1.338 -3.592,-3.941z" id="svg_3"/>
   <path fill="#212529" d="m22.313,54.103l-2.888,0l0,-1.115l7.043,0l0,1.115l-2.888,0l0,7.808l-1.197,0l0,-7.808l-0.07,0z" id="svg_4"/>
   <path fill="#212529" d="m27.196,57.449c0,-2.603 1.902,-4.61 4.507,-4.61s4.507,1.933 4.507,4.61c0,2.603 -1.902,4.61 -4.507,4.61c-2.605,0.001 -4.507,-2.007 -4.507,-4.61zm7.818,0c0,-2.008 -1.409,-3.421 -3.31,-3.421c-1.902,0 -3.31,1.487 -3.31,3.421c0,2.008 1.409,3.421 3.31,3.421c1.901,0 3.31,-1.413 3.31,-3.421z" id="svg_5"/>
   <path fill="#212529" d="m46.094,61.911l0,-6.544l-3.028,5.428l-0.634,0l-3.028,-5.428l0,6.544l-1.197,0l0,-8.923l0.986,0l3.521,6.321l3.521,-6.321l0.986,0l0,8.923l-1.127,0z" id="svg_6"/>
   <path fill="#212529" d="m49.287,57.449c0,-2.603 1.902,-4.61 4.507,-4.61c2.606,0 4.507,1.933 4.507,4.61c0,2.603 -1.902,4.61 -4.507,4.61c-2.606,0.001 -4.507,-2.007 -4.507,-4.61zm7.817,0c0,-2.008 -1.409,-3.421 -3.31,-3.421c-1.902,0 -3.31,1.487 -3.31,3.421c0,2.008 1.409,3.421 3.31,3.421c1.902,0 3.31,-1.413 3.31,-3.421z" id="svg_7"/>
   <path fill="#212529" d="m61.987,54.103l-2.887,0l0,-1.115l7.043,0l0,1.115l-2.888,0l0,7.808l-1.197,0c-0.071,0 -0.071,-7.808 -0.071,-7.808z" id="svg_8"/>
   <path fill="#212529" d="m68.079,52.987l1.197,0l0,8.923l-1.197,0l0,-8.923z" id="svg_9"/>
   <path fill="#212529" d="m79.875,52.987l-3.733,8.923l-1.197,0l-3.733,-8.923l1.338,0l3.028,7.362l3.099,-7.362l1.198,0z" id="svg_10"/>
   <path fill="#212529" d="m88.009,60.795l0,1.115l-6.127,0l0,-8.923l5.986,0l0,1.115l-4.789,0l0,2.751l4.226,0l0,1.115l-4.226,0l0,2.9l4.93,-0.073l0,0z" id="svg_11"/>
   <path fill="#212529" d="m95.615,52.987l1.197,0l0,8.923l-1.197,0l0,-8.923z" id="svg_12"/>
   <path fill="#212529" d="m107.341,52.987l0,8.923l-0.986,0l-5.071,-6.693l0,6.693l-1.197,0l0,-8.923l0.986,0l5.071,6.693l0,-6.693l1.197,0z" id="svg_13"/>
   <path fill="#212529" d="m112.235,54.103l-2.888,0l0,-1.115l7.043,0l0,1.115l-2.888,0l0,7.808l-1.197,0l-0.07,-7.808l0,0z" id="svg_14"/>
   <path fill="#212529" d="m124.525,60.795l0,1.115l-6.127,0l0,-8.923l5.986,0l0,1.115l-4.789,0l0,2.751l4.226,0l0,1.115l-4.226,0l0,2.9l4.93,-0.073l0,0z" id="svg_15"/>
   <path fill="#212529" d="m132.799,61.911l-1.831,-2.751c-0.141,0 -0.352,0 -0.563,0l-2.113,0l0,2.751l-1.197,0l0,-8.923l3.31,0c2.183,0 3.521,1.19 3.521,3.123c0,1.413 -0.704,2.38 -1.831,2.826l2.042,2.974c0.001,0 -1.338,0 -1.338,0zm0,-5.8c0,-1.264 -0.845,-2.008 -2.395,-2.008l-2.042,0l0,4.016l2.042,0c1.55,-0.001 2.395,-0.744 2.395,-2.008z" id="svg_16"/>
   <path fill="#212529" d="m136.637,52.987l1.197,0l0,8.923l-1.197,0l0,-8.923z" id="svg_17"/>
   <path fill="#212529" d="m140.405,57.449c0,-2.603 1.902,-4.61 4.507,-4.61s4.507,1.933 4.507,4.61c0,2.603 -1.902,4.61 -4.507,4.61s-4.507,-2.007 -4.507,-4.61zm7.747,0c0,-2.008 -1.409,-3.421 -3.31,-3.421s-3.31,1.487 -3.31,3.421c0,2.008 1.409,3.421 3.31,3.421s3.31,-1.413 3.31,-3.421z" id="svg_18"/>
   <path fill="#212529" d="m157.554,61.911l-1.831,-2.751c-0.141,0 -0.352,0 -0.563,0l-2.113,0l0,2.751l-1.197,0l0,-8.923l3.31,0c2.183,0 3.521,1.19 3.521,3.123c0,1.413 -0.704,2.38 -1.831,2.826l2.042,2.974l-1.338,0zm0,-5.8c0,-1.264 -0.845,-2.008 -2.395,-2.008l-2.042,0l0,4.016l2.042,0c1.549,-0.001 2.395,-0.744 2.395,-2.008z" id="svg_19"/>
   <path fill="#212529" d="m172.688,56.066c0,1.933 -1.338,3.123 -3.521,3.123l-2.113,0l0,2.677l-1.197,0l0,-8.923l3.31,0c2.183,0 3.521,1.19 3.521,3.123zm-1.198,0c0,-1.264 -0.845,-2.008 -2.395,-2.008l-2.042,0l0,4.016l2.042,0c1.55,0 2.395,-0.743 2.395,-2.008z" id="svg_20"/>
   <path fill="#212529" d="m180.681,59.636l-4.507,0l-0.916,2.231l-1.268,0l3.874,-8.923l1.197,0l3.874,8.923l-1.268,0l-0.986,-2.231zm-0.423,-0.967l-1.831,-4.387l-1.831,4.387l3.662,0z" id="svg_21"/>
   <path fill="#212529" d="m190.505,61.941l-1.831,-2.751c-0.141,0 -0.352,0 -0.563,0l-2.113,0l0,2.751l-1.198,0l0,-8.923l3.31,0c2.183,0 3.521,1.19 3.521,3.123c0,1.413 -0.704,2.38 -1.831,2.826l2.042,2.974l-1.337,0zm-0.07,-5.875c0,-1.264 -0.845,-2.008 -2.395,-2.008l-2.042,0l0,4.016l2.042,0c1.62,0 2.395,-0.743 2.395,-2.008z" id="svg_22"/>
   <path fill="#212529" d="m195.963,54.059l-2.888,0l0,-1.115l7.043,0l0,1.115l-2.888,0l0,7.808l-1.197,0l-0.07,-7.808l0,0z" id="svg_23"/>
   <path fill="#212529" d="m201.28,60.9l0.423,-0.967c0.634,0.595 1.69,1.041 2.817,1.041c1.479,0 2.113,-0.595 2.113,-1.413c0,-2.156 -5.141,-0.818 -5.141,-4.164c0,-1.413 0.986,-2.528 3.24,-2.528c0.986,0 2.042,0.297 2.747,0.818l-0.423,1.041c-0.704,-0.521 -1.549,-0.744 -2.324,-0.744c-1.409,0 -2.042,0.669 -2.042,1.413c0,2.156 5.141,0.818 5.141,4.09c0,1.339 -1.056,2.528 -3.31,2.528c-1.269,0 -2.537,-0.446 -3.241,-1.115z" id="svg_24"/>
   <path fill="#212529" d="m221.141,57.405l1.127,0l0,3.495c-0.845,0.744 -2.042,1.115 -3.24,1.115c-2.606,0 -4.507,-1.933 -4.507,-4.61s1.902,-4.61 4.507,-4.61c1.338,0 2.465,0.446 3.24,1.413l-0.775,0.818c-0.704,-0.744 -1.479,-1.041 -2.465,-1.041c-1.972,0 -3.381,1.413 -3.381,3.421c0,1.933 1.409,3.421 3.381,3.421c0.704,0 1.409,-0.149 1.972,-0.595l0.141,-2.827l0,0z" id="svg_25"/>
   <path fill="#212529" d="m231.458,60.826l0,1.115l-6.127,0l0,-8.923l5.986,0l0,1.115l-4.789,0l0,2.751l4.226,0l0,1.116l-4.226,0l0,2.9l4.93,-0.074l0,0z" id="svg_26"/>
   <path fill="#212529" d="m239.803,61.941l-1.831,-2.751c-0.141,0 -0.352,0 -0.563,0l-2.113,0l0,2.751l-1.197,0l0,-8.923l3.31,0c2.183,0 3.521,1.19 3.521,3.123c0,1.413 -0.704,2.38 -1.831,2.826l2.042,2.974l-1.338,0zm-0.07,-5.875c0,-1.264 -0.845,-2.008 -2.395,-2.008l-2.042,0l0,4.016l2.042,0c1.55,0 2.395,-0.743 2.395,-2.008z" id="svg_27"/>
   <path fill="#212529" d="m251.459,61.941l0,-6.544l-3.028,5.428l-0.563,0l-3.028,-5.428l0,6.469l-1.127,0l0,-8.923l0.986,0l3.521,6.321l3.521,-6.321l0.986,0l0,8.923l-1.268,0l0,0.075l0,0z" id="svg_28"/>
   <path fill="#212529" d="m261.212,59.636l-4.507,0l-0.916,2.231l-1.268,0l3.874,-8.923l1.197,0l3.874,8.923l-1.268,0l-0.986,-2.231zm-0.422,-0.967l-1.831,-4.387l-1.831,4.387l3.662,0z" id="svg_29"/>
   <path fill="#212529" d="m272.656,52.943l0,8.923l-0.986,0l-5.071,-6.693l0,6.693l-1.197,0l0,-8.923l0.986,0l5.071,6.693l0,-6.693l1.197,0z" id="svg_30"/>
   <path fill="#212529" d="m279.1,58.818l0,3.123l-1.197,0l0,-3.123l-3.381,-5.8l1.268,0l2.747,4.685l2.747,-4.685l1.197,0l-3.381,5.8z" id="svg_31"/>
  </g>
  <path id="Pfad_25_3_" fill="#00459B" d="m55.6,13.954c6.5,-3.8 23.6,-13.7 23.6,-13.7l15.4,0l-22.8,12.7l19.9,22.1c-7.6,0.1 -9.1,0 -15.8,0c-2,-0.1 -8.2,0.3 -12.2,-5.3c-2.7,-3.5 -8,-10.3 -9.1,-11.4c-1.1,4.9 -3.6,16.8 -3.6,16.8s-13.1,0 -19.5,0l7.4,-34.9c0,0 4.5,-0.1 7.7,0c7.9,-0.1 10.9,2.6 10.1,8.2c-0.2,1.4 -0.8,3.3 -1.1,5.5"/>
  <g id="Gruppe_34_2_">
   <path id="Pfad_26_2_" fill="#00459B" d="m102.016,6.073c1.4,-4.9 3.1,-5.9 6.7,-5.9c10.9,0 21.8,-0.1 32.7,0c2.1,0 4.6,0.4 6.6,1c4.9,1.2 7.2,6 6,11.8c-0.9,4.2 -1.6,8.1 -2.7,12.3c-1.6,6.5 -4.5,9.5 -11.4,9.6c-11.9,0.1 -23.1,0.1 -32.9,0c-9.8,-0.2 -13.1,-4.5 -12.5,-9.5c0.2,-1.5 1.1,-5.3 6.9,-7.9s10.5,-2.9 15.4,-3.6c4.9,-0.8 14.8,-1.8 15.9,-2.2c1.7,-0.5 3.1,-1.1 3.2,-3.2c-0.1,-2 -1.8,-2.2 -3.5,-2.3l-30.4,-0.1zm15.7,14.2c-2.5,0.6 -4.9,2.3 -5.2,4.6c-0.7,4.6 5.7,4 8.9,4c4.1,0 7.5,0.5 9.4,-1.2c1.2,-1.1 1.8,-4.7 3.1,-9.8c-0.1,0 -13.2,1.7 -16.2,2.4z"/>
  </g>
  <g id="Gruppe_36_1_">
   <path id="Pfad_28_1_" fill="#00459B" d="m160.914,35.025c-1.2,0 -3.3,-0.1 -3.8,-1.7c-0.6,-1.9 0.4,-4.4 0.4,-4.4s30.4,0 31.3,0c2,-0.2 4.5,-0.4 4.8,-2.9c0.1,-2.3 -1.8,-2.7 -3.7,-3.1c-6.5,-1.3 -11.7,-2.3 -18.1,-3.6c-5.2,-1 -9.8,-3.5 -10,-8.9c0,-4.3 2.5,-7.7 6.6,-9c3.1,-1.1 7,-1.2 10.3,-1.3c10.4,-0.2 20.8,-0.1 31.2,-0.1c0.6,0 1.3,0 2,0.1c1.9,0.2 2.9,0.9 2.8,2.8s-0.7,3 -0.7,3c-8.4,-0.1 -25.5,0 -28.6,0s-4.8,1 -4.9,2.8c-0.1,1.7 1.6,2.5 3.7,2.9c3.4,0.7 16.1,3.1 19.3,3.8c10.7,2.3 9.8,9.5 8,13.5c-1.8,4 -7.7,5.9 -17,5.9c0,0.2 -28.1,0.2 -33.6,0.2z"/>
  </g>
  <g id="Gruppe_37_1_">
   <path id="Pfad_29_1_" fill="#00459B" d="m303.24,35.082l-19.9,0c0,0 4.7,-22.8 6.2,-29.2c1,-4.1 3.6,-5.7 7.6,-5.7c4.5,-0.1 13.5,0 13.5,0l-7.4,34.9z"/>
  </g>
  <g id="Gruppe_34_1_">
   <path id="Pfad_26_1_" fill="#00459B" d="m225.816,6.073c1.4,-4.9 3.1,-5.9 6.7,-5.9c10.9,0 21.8,-0.1 32.7,0c2.1,0 4.6,0.4 6.6,1c4.9,1.2 7.2,6 6,11.8c-0.9,4.2 -1.6,8.1 -2.7,12.3c-1.6,6.5 -4.5,9.5 -11.4,9.6c-11.9,0.1 -23.1,0.1 -32.9,0c-9.8,-0.2 -13.1,-4.5 -12.5,-9.5c0.2,-1.5 1.1,-5.3 6.9,-7.9s10.5,-2.9 15.4,-3.6c4.9,-0.8 14.8,-1.8 15.9,-2.2c1.7,-0.5 3.1,-1.1 3.2,-3.2c-0.1,-2 -1.8,-2.2 -3.5,-2.3l-30.4,-0.1zm15.7,14.2c-2.5,0.6 -4.9,2.3 -5.2,4.6c-0.7,4.6 5.7,4 8.9,4c4.1,0 7.5,0.5 9.4,-1.2c1.2,-1.1 1.8,-4.7 3.1,-9.8c-0.1,0 -13.2,1.7 -16.2,2.4z"/>
  </g>
 </g>

</svg>