<svg width="452" height="335" viewBox="0 0 452 335" fill="none" xmlns="http://www.w3.org/2000/svg">
<path fill-rule="evenodd" clip-rule="evenodd" d="M417.267 0L301.794 0.325195L301.692 116.386C316.435 117.237 343.808 116.407 354.141 110.687C380.442 96.1291 383.956 44.026 403.385 14.4235C406.29 9.99839 409.428 6.07919 413.89 3.13629C415.231 2.25209 416.634 1.7391 417.267 0V0Z" fill="#E30016"/>
<path fill-rule="evenodd" clip-rule="evenodd" d="M366.996 160.821C371.345 156.213 382.787 151.591 395.809 131.344C414.051 102.979 423.523 55.2013 434.198 37.7399C437.743 31.9405 441.996 26.968 451.481 29.6394L451.541 0.225098L417.267 0C416.634 1.7391 415.231 2.25209 413.89 3.13629C409.428 6.07919 406.29 9.99839 403.385 14.4235C383.956 44.026 380.442 96.1291 354.141 110.687C343.808 116.407 316.435 117.237 301.692 116.386L301.794 0.325195L301.692 116.386V160.821H366.996Z" fill="#A8A8A8"/>
<path fill-rule="evenodd" clip-rule="evenodd" d="M357.358 280.823V253.539H320.612C308.903 253.539 297.931 252.387 293.609 246.932C288.318 240.254 288.482 226.117 294.311 219.907C301.297 212.465 313.536 214.387 325.066 214.673L307.046 245.717H338.735L357.358 210.488L357.538 188.989L300.129 188.92C294.164 188.913 289.612 190.021 287.686 190.767C270.145 196.245 258.443 212.284 258.573 234.938C258.686 254.564 269.177 273.536 287.979 278.785C291.637 279.807 296.198 280.913 301.326 280.905L357.358 280.823Z" fill="#15130E"/>
<path fill-rule="evenodd" clip-rule="evenodd" d="M181.757 280.865V253.58H145.011C133.302 253.58 122.329 252.428 118.008 246.974C112.716 240.295 112.881 226.159 118.71 219.949C125.695 212.506 137.934 214.428 149.464 214.714L131.444 245.759H163.133L181.757 210.529L181.936 189.031L124.528 188.961C118.563 188.954 114.01 190.062 112.084 190.808C94.5436 196.287 82.8411 212.325 82.9712 234.979C83.084 254.605 93.5753 273.578 112.377 278.826C116.035 279.848 120.596 280.954 125.724 280.947L181.757 280.865Z" fill="#15130E"/>
<path fill-rule="evenodd" clip-rule="evenodd" d="M366.996 160.821H451.481V29.6394C441.996 26.968 437.743 31.9405 434.198 37.7399C423.523 55.2013 414.051 102.979 395.809 131.344C382.787 151.591 371.345 156.213 366.996 160.821V160.821Z" fill="#E30016"/>
<path fill-rule="evenodd" clip-rule="evenodd" d="M0.408997 252.635L0 279.602C14.7407 281.206 39.3114 281.232 51.2637 275.086C62.7511 269.179 72.1652 256.891 73.4391 239.468C74.9338 219.026 69.076 206.07 57.4747 197.607C43.0021 187.05 35.8338 181.83 35.4515 160.821H3.29099C1.53489 174.433 3.39669 188.907 10.3527 196.737C14.6205 201.541 25.7391 207.941 34.4194 216.141C41.3872 222.724 46.7929 237.267 38.1614 246.949C30.6156 255.414 13.1556 251.437 0.408997 252.635V252.635Z" fill="#15130E"/>
<path fill-rule="evenodd" clip-rule="evenodd" d="M249.238 280.9L249.271 255.13C239.473 256.946 225.808 255.483 221.713 245.717V214.045L249.238 214.028V188.961H221.713V160.821H191.237L191.339 245.717C197.656 272.144 221.713 280.9 249.238 280.9Z" fill="#15130E"/>
<path fill-rule="evenodd" clip-rule="evenodd" d="M30.2178 326.851H23.8481L21.3261 320.202H9.6134L7.18658 326.851H0.932587L12.2714 297.647H18.5187L30.2178 326.851ZM19.4091 315.267L15.3507 304.458L11.408 315.267H19.4091ZM33.3652 297.647H39.2794V313.472C39.2794 315.988 39.3539 317.612 39.4968 318.353C39.7482 319.55 40.3398 320.515 41.2778 321.235C42.2229 321.963 43.5075 322.323 45.1389 322.323C46.7909 322.323 48.0418 321.983 48.8846 321.297C49.7276 320.61 50.2307 319.774 50.4005 318.775C50.5706 317.775 50.6588 316.123 50.6588 313.812V297.647H56.573V313.003C56.573 316.511 56.4168 318.992 56.097 320.44C55.7776 321.888 55.1931 323.112 54.3364 324.111C53.4869 325.11 52.3448 325.899 50.9173 326.49C49.483 327.082 47.6203 327.381 45.3157 327.381C42.5355 327.381 40.428 327.061 38.9936 326.415C37.5593 325.77 36.424 324.934 35.5881 323.9C34.7519 322.867 34.2082 321.793 33.9429 320.658C33.5554 318.986 33.3652 316.511 33.3652 313.241V297.647ZM69.387 326.851V302.582H60.7402V297.647H83.9072V302.582H75.3012V326.851H69.387ZM85.7766 312.426C85.7766 309.448 86.2253 306.946 87.116 304.921C87.7753 303.432 88.6861 302.093 89.835 300.91C90.9839 299.727 92.2413 298.85 93.6079 298.272C95.4297 297.504 97.5302 297.117 99.9093 297.117C104.219 297.117 107.659 298.456 110.249 301.128C112.832 303.806 114.124 307.524 114.124 312.289C114.124 317.014 112.839 320.712 110.276 323.377C107.713 326.048 104.28 327.381 99.991 327.381C95.6471 327.381 92.1872 326.055 89.6244 323.397C87.0616 320.746 85.7766 317.089 85.7766 312.426V312.426ZM91.8538 312.228C91.8538 315.539 92.622 318.047 94.1516 319.76C95.6812 321.467 97.6254 322.323 99.9773 322.323C102.336 322.323 104.267 321.474 105.783 319.781C107.292 318.081 108.046 315.539 108.046 312.147C108.046 308.796 107.312 306.294 105.837 304.649C104.369 302.997 102.418 302.174 99.9773 302.174C97.5438 302.174 95.5791 303.01 94.0904 304.676C92.6016 306.348 91.8538 308.863 91.8538 312.228V312.228ZM118.644 326.851V297.647H127.502L132.736 317.565L137.909 297.647H146.788V326.851H141.322L141.302 303.86L135.544 326.851H129.861L124.13 303.86L124.11 326.851H118.644ZM151.478 312.426C151.478 309.448 151.927 306.946 152.817 304.921C153.477 303.432 154.387 302.093 155.536 300.91C156.685 299.727 157.943 298.85 159.309 298.272C161.131 297.504 163.232 297.117 165.611 297.117C169.921 297.117 173.36 298.456 175.95 301.128C178.534 303.806 179.825 307.524 179.825 312.289C179.825 317.014 178.54 320.712 175.978 323.377C173.415 326.048 169.982 327.381 165.692 327.381C161.349 327.381 157.889 326.055 155.326 323.397C152.763 320.746 151.478 317.089 151.478 312.426V312.426ZM157.555 312.228C157.555 315.539 158.323 318.047 159.853 319.76C161.383 321.467 163.327 322.323 165.679 322.323C168.038 322.323 169.968 321.474 171.484 319.781C172.993 318.081 173.748 315.539 173.748 312.147C173.748 308.796 173.014 306.294 171.539 304.649C170.07 302.997 168.119 302.174 165.679 302.174C163.245 302.174 161.281 303.01 159.792 304.676C158.303 306.348 157.555 308.863 157.555 312.228V312.228ZM190.994 326.851V302.582H182.347V297.647H205.514V302.582H196.908V326.851H190.994ZM209.138 326.851V297.647H215.052V326.851H209.138ZM228.144 326.851L217.696 297.647H224.086L231.503 319.264L238.62 297.647H244.901L234.514 326.851H228.144ZM247.879 326.851V297.647H269.496V302.582H253.793V309.067H268.394V314.003H253.793V321.915H270.067V326.851H247.879Z" fill="#15130E"/>
<path d="M294.682 295.232L304.211 319.016L313.741 295.232H318.726V324.381H314.882V313.03L315.242 300.778L305.673 324.381H302.73L293.181 300.838L293.561 313.03V324.381H289.717V295.232H294.682ZM341.988 310.908H329.356V321.238H344.03V324.381H325.512V295.232H343.83V298.396H329.356V307.765H341.988V310.908ZM358.324 306.403L365.311 295.232H369.835L360.626 309.687L370.056 324.381H365.491L358.324 313.01L351.117 324.381H346.573L356.022 309.687L346.793 295.232H351.297L358.324 306.403ZM378.644 324.381H374.8V295.232H378.644V324.381ZM407.132 315.132C406.771 318.215 405.63 320.597 403.708 322.279C401.8 323.947 399.257 324.781 396.081 324.781C392.638 324.781 389.875 323.547 387.793 321.078C385.724 318.609 384.69 315.305 384.69 311.168V308.365C384.69 305.656 385.17 303.274 386.131 301.218C387.106 299.163 388.48 297.588 390.255 296.494C392.03 295.386 394.086 294.832 396.421 294.832C399.518 294.832 402 295.7 403.869 297.435C405.737 299.156 406.825 301.545 407.132 304.602H403.268C402.934 302.279 402.207 300.598 401.086 299.557C399.978 298.516 398.423 297.995 396.421 297.995C393.966 297.995 392.037 298.903 390.636 300.718C389.248 302.533 388.554 305.115 388.554 308.465V311.288C388.554 314.451 389.214 316.967 390.536 318.836C391.857 320.704 393.705 321.638 396.081 321.638C398.216 321.638 399.851 321.158 400.986 320.197C402.134 319.223 402.894 317.534 403.268 315.132H407.132ZM434.819 310.748C434.819 313.604 434.338 316.1 433.377 318.235C432.417 320.357 431.055 321.979 429.293 323.1C427.532 324.221 425.476 324.781 423.127 324.781C420.832 324.781 418.797 324.221 417.021 323.1C415.246 321.965 413.865 320.357 412.877 318.275C411.903 316.18 411.403 313.757 411.376 311.008V308.906C411.376 306.103 411.863 303.627 412.837 301.479C413.812 299.33 415.186 297.688 416.961 296.554C418.75 295.406 420.792 294.832 423.087 294.832C425.423 294.832 427.478 295.399 429.253 296.534C431.042 297.655 432.417 299.29 433.377 301.439C434.338 303.574 434.819 306.063 434.819 308.906V310.748ZM430.995 308.866C430.995 305.409 430.301 302.76 428.913 300.918C427.525 299.063 425.583 298.135 423.087 298.135C420.658 298.135 418.743 299.063 417.342 300.918C415.954 302.76 415.24 305.322 415.2 308.606V310.748C415.2 314.098 415.9 316.733 417.302 318.655C418.716 320.564 420.658 321.518 423.127 321.518C425.61 321.518 427.532 320.617 428.893 318.815C430.254 317 430.955 314.405 430.995 311.028V308.866Z" fill="#15130E"/>
<path fill-rule="evenodd" clip-rule="evenodd" d="M451.481 215.51V189.677C447.469 188.518 426.984 185.856 409.16 208.635C391.336 185.856 370.851 188.518 366.839 189.677V215.51C373.827 215.306 390.7 217.077 391.637 234.953C390.7 252.828 373.827 254.6 366.839 254.396V280.228C370.851 281.387 391.336 284.05 409.16 261.271C426.984 284.05 447.469 281.387 451.481 280.228V254.396C444.493 254.6 427.62 252.828 426.683 234.953C427.62 217.077 444.493 215.306 451.481 215.51V215.51Z" fill="#15130E" stroke="black" stroke-width="0.216"/>
</svg>
